<svg width="480" height="361" viewBox="0 0 480 361" fill="none" xmlns="http://www.w3.org/2000/svg">
<mask id="mask0_1_402" style="mask-type:alpha" maskUnits="userSpaceOnUse" x="0" y="0" width="480" height="361">
<rect x="479.5" y="0.5" width="360" height="479" transform="rotate(90 479.5 0.5)" fill="url(#paint0_linear_1_402)" stroke="#6246E5"/>
</mask>
<g mask="url(#mask0_1_402)">
<path d="M118.185 437.189C48.8526 437.189 -7.35403 380.903 -7.35402 311.471C-7.35402 242.038 48.8526 185.753 118.185 185.753C187.518 185.753 243.725 242.038 243.725 311.471C243.725 380.903 187.518 437.189 118.185 437.189Z" stroke="#E5E5E5"/>
<path d="M131.453 442.17C53.8767 442.17 -9.01231 379.193 -9.0123 301.505C-9.0123 223.818 53.8768 160.841 131.453 160.841C209.029 160.841 271.918 223.818 271.918 301.505C271.918 379.193 209.029 442.17 131.453 442.17Z" stroke="#E5E5E5"/>
<path d="M142.232 447.153C57.329 447.153 -11.5001 378.228 -11.5001 293.203C-11.5001 208.177 57.329 139.252 142.232 139.252C227.136 139.252 295.965 208.177 295.965 293.203C295.965 378.228 227.136 447.153 142.232 447.153Z" stroke="#E5E5E5"/>
<path d="M157.988 450.474C66.6729 450.474 -7.35359 376.344 -7.35358 284.898C-7.35358 193.453 66.6729 119.322 157.988 119.322C249.303 119.322 323.329 193.453 323.329 284.898C323.329 376.344 249.303 450.474 157.988 450.474Z" stroke="#E5E5E5"/>
<path d="M173.328 453.796C75.8306 453.796 -3.20776 374.647 -3.20776 277.01C-3.20775 179.373 75.8306 100.224 173.328 100.224C270.825 100.224 349.864 179.373 349.864 277.01C349.864 374.647 270.825 453.796 173.328 453.796Z" stroke="#E5E5E5"/>
<path d="M190.741 457.948C83.6268 457.948 -3.20776 370.992 -3.20776 263.724C-3.20775 156.456 83.6268 69.5 190.741 69.5C297.856 69.5 384.69 156.456 384.69 263.724C384.69 370.992 297.856 457.948 190.741 457.948Z" stroke="#E5E5E5"/>
</g>
<defs>
<linearGradient id="paint0_linear_1_402" x1="736.035" y1="13.4669" x2="487.704" y2="484.066" gradientUnits="userSpaceOnUse">
<stop stop-color="#747DEF"/>
<stop offset="1" stop-color="#5E3BE1"/>
</linearGradient>
</defs>
</svg>
